<?xml version="1.0" encoding="UTF-8"?>
<svg id="_Слой_1" data-name="Слой_1" xmlns="http://www.w3.org/2000/svg" version="1.1" viewBox="0 0 512 512">
  <!-- Generator: Adobe Illustrator 29.5.0, SVG Export Plug-In . SVG Version: 2.1.0 Build 137)  -->
  <defs>
    <style>
      .st0 {
        fill: #a9c9dd;
      }

      .st1 {
        fill: #c8daea;
      }

      .st2 {
        fill: #37aee2;
      }

      .st3 {
        fill: #f6fbfe;
      }
    </style>
  </defs>
  <rect class="st2" x="0" y="0" width="512" height="512" rx="70" ry="70"/>
  <path class="st1" d="M199,404c-11,0-10-4-13-14l-32-105,245-144"/>
  <path class="st0" d="M199,404c7,0,11-4,16-8l45-43-56-34"/>
  <path class="st3" d="M204,319l135,99c14,9,26,4,30-14l55-258c5-22-9-32-24-25L79,245c-21,8-21,21-4,26l83,26,190-121c9-5,17-3,11,4"/>
</svg>