<?xml version="1.0" encoding="UTF-8"?>
<svg id="_Слой_1" data-name="Слой_1" xmlns="http://www.w3.org/2000/svg" version="1.1" viewBox="0 0 512 512">
  <!-- Generator: Adobe Illustrator 29.5.0, SVG Export Plug-In . SVG Version: 2.1.0 Build 137)  -->
  <defs>
    <style>
      .st0, .st1 {
        fill: #010101;
      }

      .st2 {
        fill: #fff;
      }

      .st2, .st1, .st3, .st4, .st5, .st6 {
        fill-rule: evenodd;
      }

      .st3 {
        fill: #ee1d51;
      }

      .st4 {
        fill: #66c8cf;
      }

      .st5 {
        fill: #69c9d0;
      }

      .st6 {
        fill: #ee1d52;
      }
    </style>
  </defs>
  <path class="st1" d="M70,0h372c38.66,0,70,31.34,70,70v372c0,38.66-31.34,70-70,70H70c-38.66,0-70-31.34-70-70V70C0,31.34,31.34,0,70,0Z"/>
  <path class="st3" d="M321.5,471.04c15.58,0,28.21-12.53,28.21-27.98s-12.63-27.98-28.21-27.98h-4.25c15.58,0,28.21,12.53,28.21,27.98s-12.63,27.98-28.21,27.98h4.25Z"/>
  <path class="st4" d="M316.86,415.08h-4.25c-15.58,0-28.21,12.53-28.21,27.98s12.63,27.98,28.21,27.98h4.25c-15.58,0-28.21-12.53-28.21-27.98s12.63-27.98,28.21-27.98Z"/>
  <ellipse class="st0" cx="317.05" cy="443.06" rx="13.72" ry="13.6"/>
  <path class="st2" d="M102.4,402.43v14.18h16.61v54.04h16.62v-53.66h13.52l4.64-14.57h-51.39ZM238.42,402.43v14.18h16.61v54.04h16.62v-53.66h13.52l4.64-14.57h-51.39ZM156.89,410.48c0-4.44,3.63-8.05,8.11-8.05s8.12,3.6,8.12,8.05-3.63,8.05-8.12,8.05c-4.48,0-8.11-3.6-8.11-8.05ZM156.89,424.28h16.22v46.38h-16.22v-46.38ZM180.07,402.43v68.23h16.23v-17.63l5.02-4.6,15.84,22.62h17.39l-22.8-32.96,20.48-19.93h-19.71l-16.23,16.1v-31.81h-16.23ZM355.11,402.43v68.23h16.23v-17.63l5.02-4.6,15.85,22.62h17.39l-22.8-32.96,20.48-19.93h-19.71l-16.23,16.1v-31.81h-16.23Z"/>
  <path class="st6" d="M330.07,166.27c22.41,16.01,49.87,25.44,79.53,25.44v-57.04c-5.61,0-11.21-.58-16.7-1.75v44.9c-29.65,0-57.11-9.42-79.53-25.44v116.4c0,58.23-47.23,105.43-105.48,105.43-21.74,0-41.94-6.57-58.72-17.83,19.15,19.57,45.87,31.72,75.42,31.72,58.26,0,105.49-47.2,105.49-105.43v-116.4h0ZM350.67,108.72c-11.45-12.51-18.97-28.67-20.6-46.54v-7.34h-15.83c3.98,22.71,17.57,42.12,36.43,53.88h0ZM186.01,311.7c-6.4-8.39-9.86-18.65-9.84-29.2,0-26.63,21.6-48.22,48.25-48.22,4.97,0,9.9.76,14.64,2.26v-58.31c-5.53-.76-11.11-1.08-16.7-.96v45.39c-4.74-1.5-9.68-2.26-14.64-2.26-26.65,0-48.25,21.59-48.25,48.23,0,18.83,10.8,35.14,26.54,43.08Z"/>
  <path class="st2" d="M313.37,152.38c22.42,16.01,49.87,25.44,79.53,25.44v-44.9c-16.55-3.52-31.21-12.17-42.22-24.2-18.86-11.76-32.45-31.17-36.43-53.88h-41.57v227.82c-.09,26.56-21.66,48.06-48.25,48.06-15.67,0-29.59-7.46-38.41-19.03-15.75-7.94-26.54-24.25-26.54-43.08,0-26.63,21.6-48.23,48.25-48.23,5.11,0,10.03.79,14.64,2.26v-45.39c-57.23,1.18-103.26,47.92-103.26,105.4,0,28.69,11.46,54.71,30.06,73.71,16.78,11.26,36.99,17.83,58.72,17.83,58.26,0,105.48-47.2,105.48-105.43v-116.4Z"/>
  <path class="st5" d="M392.9,132.92v-12.14c-14.93.02-29.56-4.16-42.22-12.06,11.21,12.27,25.97,20.73,42.22,24.2ZM314.24,54.85c-.38-2.17-.67-4.36-.87-6.55v-7.34h-57.4v227.82c-.09,26.56-21.66,48.06-48.25,48.06-7.81,0-15.18-1.85-21.71-5.14,8.82,11.57,22.74,19.03,38.41,19.03,26.59,0,48.16-21.5,48.25-48.06V54.85h41.57ZM222.36,177.26v-12.92c-4.8-.66-9.63-.98-14.47-.98-58.26,0-105.49,47.2-105.49,105.42,0,36.5,18.56,68.67,46.77,87.6-18.6-19.01-30.06-45.02-30.06-73.71,0-57.48,46.03-104.22,103.26-105.4h0Z"/>
  <path class="st2" d="M317.24,471.04c15.58,0,28.21-12.53,28.21-27.98s-12.63-27.98-28.21-27.98h-.39c-15.58,0-28.21,12.53-28.21,27.98s12.63,27.98,28.21,27.98h.39ZM303.33,443.06c0-7.52,6.14-13.6,13.72-13.6s13.72,6.09,13.72,13.6-6.14,13.61-13.72,13.61c-7.58,0-13.72-6.09-13.72-13.61Z"/>
</svg>