<?xml version="1.0" encoding="UTF-8"?>
<svg id="_Слой_1" data-name="Слой_1" xmlns="http://www.w3.org/2000/svg" version="1.1" viewBox="0 0 512 512">
  <!-- Generator: Adobe Illustrator 29.5.0, SVG Export Plug-In . SVG Version: 2.1.0 Build 137)  -->
  <defs>
    <style>
      .st0 {
        fill: #fff;
        fill-rule: evenodd;
      }

      .st1 {
        fill: #7b519d;
      }
    </style>
  </defs>
  <rect class="st1" width="512" height="512" rx="70" ry="70"/>
  <g>
    <path class="st0" d="M421.92,345.46c-12.2-9.82-25.23-18.63-38.06-27.64-25.59-17.97-49-19.37-68.09,9.55-10.72,16.23-25.73,16.95-41.43,9.82-43.27-19.62-76.68-49.85-96.26-93.83-8.66-19.46-8.54-36.9,11.71-50.66,10.73-7.28,21.53-15.89,20.67-31.79-1.13-20.74-51.48-90.03-71.36-97.35-8.23-3.03-16.42-2.83-24.79-.02-46.62,15.68-65.93,54.02-47.44,99.42,55.17,135.44,152.26,229.73,285.91,287.28,7.62,3.28,16.08,4.59,20.37,5.76,30.43.31,66.07-29.01,76.37-58.1,9.91-27.99-11.04-39.1-27.6-52.44h0ZM272.06,77.44c97.71,15.03,142.77,61.49,155.21,159.9,1.15,9.09-2.23,22.77,10.74,23.02,13.55.26,10.29-13.22,10.4-22.32,1.15-92.68-79.67-178.61-173.52-181.77-7.08,1.02-21.73-4.88-22.65,10.99-.61,10.7,11.73,8.94,19.82,10.19h0Z"/>
    <path class="st0" d="M291.17,104.42c-9.4-1.13-21.8-5.56-24,7.48-2.29,13.69,11.54,12.3,20.42,14.29,60.35,13.49,81.36,35.45,91.29,95.31,1.45,8.73-1.43,22.31,13.4,20.06,10.99-1.67,7.02-13.32,7.94-20.12.49-57.47-48.76-109.78-109.05-117.02h0Z"/>
    <path class="st0" d="M296.71,151.42c-6.27.15-12.43.83-14.74,7.54-3.46,10.02,3.82,12.41,11.24,13.6,24.76,3.97,37.78,18.57,40.26,43.26.67,6.7,4.92,12.13,11.39,11.37,8.97-1.07,9.78-9.05,9.51-16.63.44-27.73-30.9-59.79-57.65-59.13h0Z"/>
  </g>
</svg>