<?xml version="1.0" encoding="UTF-8"?>
<svg id="_Слой_1" data-name="Слой_1" xmlns="http://www.w3.org/2000/svg" version="1.1" viewBox="0 0 512 512">
  <!-- Generator: Adobe Illustrator 29.5.0, SVG Export Plug-In . SVG Version: 2.1.0 Build 137)  -->
  <defs>
    <style>
      .st0 {
        fill: #fff;
      }

      .st1 {
        stroke: #fff;
        stroke-width: 26px;
      }

      .st1, .st2 {
        fill: #25d366;
      }
    </style>
  </defs>
  <rect class="st2" x="0" y="0" width="512" height="512" rx="70" ry="70"/>
  <path class="st1" d="M123,393l14-65c-40.81-64.37-21.71-149.63,42.66-190.44,64.37-40.81,149.63-21.71,190.44,42.66,40.81,64.37,21.71,149.63-42.66,190.44-42.52,26.96-96.34,28.62-140.44,4.34l-64,18Z"/>
  <path class="st0" d="M308,273c-3-2-6-3-9,1l-12,16c-3,2-5,3-9,1-15-8-36-17-54-47-1-4,1-6,3-8l9-14c2-2,1-4,0-6l-12-29c-3-8-6-7-9-7h-8c-2,0-6,1-10,5-22,22-13,53,3,73,3,4,23,40,66,59,32,14,39,12,48,10,11-1,22-10,27-19,1-3,6-16,2-18"/>
</svg>