<?xml version="1.0" encoding="UTF-8"?>
<svg id="_Слой_1" data-name="Слой_1" xmlns="http://www.w3.org/2000/svg" version="1.1" viewBox="0 0 512 512">
  <!-- Generator: Adobe Illustrator 29.5.0, SVG Export Plug-In . SVG Version: 2.1.0 Build 137)  -->
  <defs>
    <style>
      .st0 {
        fill: #fff;
      }

      .st1 {
        fill: #e8e0e0;
      }

      .st2 {
        fill: #cd201f;
      }
    </style>
  </defs>
  <path class="st0" d="M341.06,250.72c-46.94-25.09-91.89-48.15-137.84-72.23v144.05c48.35-26.28,99.31-50.35,138.04-71.82h-.2Z"/>
  <path class="st1" d="M341.06,250.72c-46.94-25.09-137.84-72.23-137.84-72.23l121.19,81.45s-22.08,12.24,16.65-9.22h0Z"/>
  <path class="st2" d="M212.05,435.31c-97.51-1.8-130.81-3.41-151.28-7.63-13.85-2.8-25.89-9.02-34.71-18.05-6.82-6.83-12.24-17.25-16.45-31.71-3.61-12.04-5.02-22.07-7.02-46.55-3.07-55.25-3.8-100.41,0-150.88,3.13-27.87,4.65-60.96,25.48-80.26,9.83-9.03,21.27-14.85,34.11-17.25,20.06-3.81,105.53-6.82,194.02-6.82s173.95,3.01,194.03,6.82c16.04,3.01,31.09,12.04,39.92,23.67,19,29.88,19.33,67.04,21.26,96.11.8,13.85.8,92.49,0,106.34-3,45.94-5.41,62.19-12.23,79.04-4.22,10.64-7.82,16.25-14.05,22.47-9.77,9.57-22.23,15.94-35.72,18.26-84.38,6.35-156.03,7.72-237.35,6.42h0ZM341.26,250.72c-46.94-25.09-91.89-48.35-137.84-72.43v144.06c48.35-26.28,99.32-50.36,138.04-71.83l-.2.2h0Z"/>
</svg>